<?xml version="1.0" encoding="utf-8"?>
<!-- Generator: Adobe Illustrator 23.0.0, SVG Export Plug-In . SVG Version: 6.00 Build 0)  -->
<svg version="1.1" id="logo" xmlns="http://www.w3.org/2000/svg" xmlns:xlink="http://www.w3.org/1999/xlink" x="0px" y="0px"
	 viewBox="0 0 254.1 109.6" style="enable-background:new 0 0 254.1 109.6;" xml:space="preserve">
<style type="text/css">
	.st0{fill:#fff;}
	.st1{font-family:'Parisienne-Regular';}
	.st2{font-size:72px;}
	.st3{font-family:'Avenir-Light';}
	.st4{font-size:20.2062px;}
</style>
<text transform="matrix(1 0 0 1 54.0351 78.0924)" class="st0 st1 st2">avender</text>
<text transform="matrix(0.9531 0 0 1 156.0478 106.7431)" class="st0 st3 st4">BOUTIQUE</text>
<g>
	<path class="st0" d="M61.7,1.8c-4.8,9.1-9.2,18.4-13.4,27.8c-4.2,9.4-8,19-11.8,28.6c-3.8,9.6-7.4,19.3-11.1,28.9l-1.4,3.6
		c-0.5,1.3-1.1,2.5-1.8,3.7c-1.3,2.4-3,4.6-4.9,6.5c-1.9,1.9-4.1,3.6-6.6,4.8c-1.3,0.6-2.6,1.1-3.9,1.3c-1.4,0.3-2.8,0.3-4.2,0.2
		l-0.1,0c-0.1,0-0.2-0.1-0.3-0.1l0,0c-0.8-0.5-1.6-1.2-2.1-2.3c-0.4-1.1-0.1-2.3,0.3-3.1c0.9-1.7,2.2-2.9,3.5-4
		c2.7-2.2,5.9-3.8,9.2-4.7c3.3-0.9,6.8-1.2,10.2-1.1c3.4,0.1,6.8,0.5,10.1,1c6.6,1.1,13.1,2.8,19.5,4.5c6.4,1.7,12.8,3.4,19.3,4.9
		c3.2,0.7,6.5,1.4,9.7,1.9c3.3,0.5,6.6,1,9.8,1.4c6.6,0.8,13.2,1.4,19.8,1.6c6.6,0.2,13.3,0.1,19.8-0.6c3.3-0.4,6.5-0.9,9.7-1.8
		c3.2-0.9,6.3-2,9-3.8c0.2-0.1,0.4-0.1,0.5,0.1c0.1,0.2,0.1,0.4-0.1,0.5c-2.8,1.9-6,3.2-9.2,4.1c-3.2,0.9-6.5,1.6-9.8,2
		c-6.6,0.9-13.3,1-20,0.9c-6.7-0.2-13.3-0.7-20-1.4c-3.3-0.4-6.6-0.8-9.9-1.3c-3.3-0.5-6.6-1.1-9.9-1.9c-6.5-1.4-13-3.1-19.4-4.7
		c-6.4-1.6-12.9-3.3-19.4-4.4c-6.5-1.1-13.1-1.6-19.3-0.1c-3.1,0.8-6,2.2-8.5,4.2c-1.2,1-2.4,2.1-3.1,3.3c-0.3,0.6-0.4,1.2-0.3,1.7
		c0.1,0.5,0.6,1,1.2,1.4l0,0l-0.4-0.1c2.4,0,4.7-0.8,6.8-2.1c2.1-1.2,3.9-2.9,5.5-4.7c1.6-1.8,2.9-3.9,4-6.1c0.5-1.1,1-2.2,1.4-3.3
		l1.2-3.7c3.3-9.8,6.9-19.5,10.7-29.2c3.8-9.7,7.8-19.2,12.3-28.6c4.5-9.4,9.4-18.6,14.9-27.4c0.4-0.6,1.1-0.8,1.7-0.4
		C61.8,0.5,62,1.2,61.7,1.8L61.7,1.8z"/>
</g>
</svg>
