<?xml version="1.0" standalone="no"?>
<!DOCTYPE svg PUBLIC "-//W3C//DTD SVG 20010904//EN"
 "http://www.w3.org/TR/2001/REC-SVG-20010904/DTD/svg10.dtd">
<svg version="1.0" xmlns="http://www.w3.org/2000/svg"
 width="500.000000pt" height="500.000000pt" viewBox="0 0 500.000000 500.000000"
 preserveAspectRatio="xMidYMid meet">
<metadata>
Created by potrace 1.11, written by Peter Selinger 2001-2013
</metadata>
<g transform="translate(0.000000,500.000000) scale(0.100000,-0.100000)"
fill="#000000" stroke="none">
<path d="M2270 4979 c-480 -45 -934 -228 -1315 -527 -101 -80 -295 -273 -379
-377 -128 -158 -243 -341 -321 -510 -398 -856 -282 -1847 303 -2590 80 -101
273 -295 377 -379 158 -128 341 -243 510 -321 856 -398 1847 -282 2590 303
101 80 295 273 379 377 128 158 243 341 321 510 402 866 280 1865 -321 2610
-84 104 -278 297 -379 377 -503 395 -1142 586 -1765 527z m-182 -1697 l2 -452
410 2 410 3 3 450 2 450 340 0 340 0 3 -1233 2 -1232 -342 2 -343 3 -2 480 -2
480 -411 3 -410 2 0 -485 0 -485 -345 0 -345 0 0 1228 c0 676 3 1232 7 1235 4
4 158 6 342 5 l336 -3 3 -453z"/>
</g>
</svg>
