<?xml version="1.0" encoding="utf-8"?>
<!-- Generator: Adobe Illustrator 23.0.1, SVG Export Plug-In . SVG Version: 6.00 Build 0)  -->
<svg version="1.1" id="Layer_1" xmlns="http://www.w3.org/2000/svg" xmlns:xlink="http://www.w3.org/1999/xlink" x="0px" y="0px"
	 viewBox="0 0 303 303" style="enable-background:new 0 0 303 303;" xml:space="preserve">
<style type="text/css">
	.st0{clip-path:url(#SVGID_2_);}
	.st1{fill:#FFFFFF;}
	.st2{fill:#280768;}
	.st3{fill:#D8AEA0;}
	.st4{fill:#E2BDAF;}
	.st5{fill:#E2AFAF;}
	.st6{fill:none;stroke:#281509;stroke-width:2;stroke-linecap:round;stroke-linejoin:round;stroke-miterlimit:10;}
	.st7{fill:#F4F6F9;}
	.st8{fill:#281509;}
	.st9{fill:#442311;}
	.st10{fill:none;stroke:#49332C;stroke-linecap:round;stroke-linejoin:round;stroke-miterlimit:10;}
</style>
<g>
	<defs>
		<path id="SVGID_1_" d="M251.88,303H51.12C23,303,0,280,0,251.88V51.12C0,23,23,0,51.12,0h200.77C280,0,303,23,303,51.12v200.77
			C303,280,280,303,251.88,303z"/>
	</defs>
	<clipPath id="SVGID_2_">
		<use xlink:href="#SVGID_1_"  style="overflow:visible;"/>
	</clipPath>
	<g id="avatar" class="st0">
		<rect class="st1" width="303" height="303"/>
		<path id="shirt" class="st2" d="M150.88,248.46l-0.01-0.17c-0.09,0.03-0.16,0.06-0.25,0.09c-0.09-0.03-0.16-0.06-0.25-0.09
			l-0.01,0.17c-49.73,16.33-61.13,58.38-61.13,58.38l58.98,30.11H153l58.98-30.11C212.02,306.86,200.62,264.79,150.88,248.46z"/>
		<ellipse id="neck" class="st3" cx="150.83" cy="256.25" rx="12.86" ry="7.95"/>
		<path id="face" class="st4" d="M153.36,253.08h-7.51c-43.85,0-97.61-36.85-97.61-91.17v-21.48c0-54.32,40.79-98.77,90.64-98.77
			h19.71c49.85,0,90.64,44.45,90.64,98.77v21.48C249.22,216.23,192.79,253.08,153.36,253.08z"/>
		<g id="mouth">
			<path class="st5" d="M159.69,223.45c0,1.92-4.31,6.09-9.61,6.09s-9.61-4.16-9.61-6.09s4.31,0.01,9.61,0.01
				C155.38,223.46,159.69,221.53,159.69,223.45z"/>
			<path class="st6" d="M159.69,222.58c-9.35,9.43-19.23,0-19.23,0"/>
		</g>
		<g id="left_eyes">
			<circle cx="91.34" cy="169.29" r="11.94"/>
			<circle class="st7" cx="91.66" cy="167.16" r="2.45"/>
			<path class="st6" d="M101.68,147.2c0,0-16.63-6.13-24.98,3.06"/>
		</g>
		<g id="right_eyes">
			<circle cx="207.24" cy="169.29" r="11.94"/>
			<circle class="st7" cx="207.5" cy="167.16" r="2.45"/>
			<path class="st6" d="M222.42,150.46c0,0-15.37-8.83-25.14-1.17"/>
		</g>
		<g id="hair">
			<path class="st8" d="M252.42,255.03c-18.01-15.81,28.42-57.91,14.79-113.63c-13.62-55.72-18.08-69.31-69.88-97.66
				c-34.08-18.14-77.39-13.37-99.11-1c0,0-29.46,1.53-46.78,43.23c-21.88,52.7-17.82,112.14-9.62,133.75
				c9.94,26.19,14.96,16.88,14.21,32.42c-0.29,5.93,10.5,8.53,17.88,0.61c6.24-6.7,2.01-17.4,1.33-21.35
				c-6.25-36.44-46.15-72.94,26.75-162.34c0,0,37.69,45.55,116.67,69.56c36.62,19,14.29,41.03,15.61,66.69
				c1.13,22.07-8.34,21.05-7.25,39.58c0.43,7.24,9.16,15.02,15.04,11.42C243.74,255.33,255.47,257.72,252.42,255.03z"/>
			<g>
				<path class="st9" d="M69.07,75.63l0.16-0.26c0.03-0.04,0.06-0.09,0.1-0.12c0.01-0.01,0.03-0.02,0.04-0.03
					c0.03-0.01,0.05,0.06,0.04,0.06c0,0.03-0.01,0.06-0.02,0.09c-0.07,0.2-0.15,0.39-0.23,0.58l-0.48,1.14l-0.96,2.27
					c-0.65,1.52-1.28,3.02-1.9,4.55c-1.24,3.04-2.42,6.12-3.52,9.22c-2.25,6.18-4.29,12.44-6.11,18.76
					c-1.8,6.33-3.42,12.72-4.74,19.18c-1.33,6.46-2.43,12.96-3.18,19.53c-1.6,13.1-1.96,26.37-0.91,39.53
					c1.07,13.16,3.54,26.22,7.54,38.84c-2.51-6.1-4.47-12.45-6.1-18.9c-1.58-6.47-2.74-13.07-3.46-19.72
					c-0.75-6.66-1.01-13.37-0.97-20.07c0.09-6.7,0.55-13.4,1.32-20.05c1.62-13.29,4.54-26.38,8.58-39.03
					c2.02-6.32,4.32-12.54,6.87-18.63c1.3-3.03,2.66-6.04,4.07-9.01c0.7-1.49,1.43-2.97,2.17-4.42l1.14-2.17l0.57-1.09
					c0.1-0.18,0.19-0.36,0.27-0.55c0.01-0.02,0.02-0.05,0.03-0.07c0-0.03,0.01,0,0.02,0c-0.01,0.01-0.01,0.01-0.02,0.02
					c-0.04,0.04-0.07,0.08-0.1,0.11L69.07,75.63z"/>
			</g>
			<g>
				<path class="st9" d="M150.63,62.18c8.02,4.04,15.82,8.54,23.51,13.24c7.69,4.7,15.23,9.7,22.62,14.98
					c7.35,5.31,14.57,10.88,21.33,17.09c3.39,3.1,6.64,6.36,9.65,9.91c1.47,1.79,2.92,3.63,4.16,5.62c1.3,1.95,2.32,4.11,3.04,6.35
					c-0.54-1.05-0.98-2.13-1.65-3.06c-0.31-0.49-0.6-0.98-0.93-1.45l-1.04-1.36c-1.4-1.81-2.92-3.5-4.51-5.13
					c-3.17-3.26-6.56-6.25-10.01-9.17c-3.47-2.9-7-5.71-10.6-8.42c-3.58-2.75-7.22-5.41-10.9-8.03c-3.64-2.66-7.35-5.23-11.06-7.78
					c-3.69-2.59-7.44-5.09-11.15-7.64L150.63,62.18z"/>
			</g>
			<g>
				<path class="st9" d="M253.99,202.74c-1.96,3.91-3.76,7.83-5.39,11.82c-0.79,2-1.59,4-2.25,6.04c-0.69,2.03-1.36,4.06-1.87,6.15
					c-1.12,4.13-1.84,8.37-2.11,12.65c-0.1,2.14-0.08,4.29,0.1,6.45c0.17,2.16,0.56,4.3,1.01,6.48c-0.99-1.96-1.73-4.05-2.27-6.24
					c-0.48-2.18-0.79-4.44-0.87-6.7c-0.09-2.26,0.08-4.53,0.32-6.77c0.3-2.23,0.76-4.45,1.3-6.62c1.19-4.33,2.8-8.49,4.83-12.39
					C248.8,209.71,251.13,205.99,253.99,202.74z"/>
			</g>
			<g>
				<path class="st9" d="M69.07,228.96c1.11,2.18,1.9,4.49,2.56,6.84c0.65,2.36,1.12,2.76,1.41,5.2c0.27,2.45,0.36,2.95,0.04,5.49
					c-0.18,1.26-0.48,2.54-1.07,3.72c-0.14,0.3-0.35,0.57-0.52,0.84c-0.23,0.25-0.41,0.52-0.68,0.71c-0.49,0.44-1.16,0.59-1.72,0.58
					c1.07-0.55,1.55-1.55,1.73-2.63c0.23-1.08,0.23-2.22,0.22-3.38c-0.06-2.31-0.31-2.65-0.57-4.99l-0.82-5.11
					C69.37,233.84,69.13,231.44,69.07,228.96z"/>
			</g>
			<path class="st10" d="M99.59,47.56c0,0,2,11.14,2,15.52"/>
		</g>
	</g>
</g>
</svg>
