<?xml version="1.0" encoding="utf-8"?>
<!-- Generator: Adobe Illustrator 23.0.0, SVG Export Plug-In . SVG Version: 6.00 Build 0)  -->
<svg version="1.1" id="KT" xmlns="http://www.w3.org/2000/svg" xmlns:xlink="http://www.w3.org/1999/xlink" x="0px" y="0px"
	 viewBox="0 0 153.4 106.9" style="enable-background:new 0 0 153.4 106.9;" xml:space="preserve">
<style type="text/css">
	.st0{fill:none;stroke:#5050CE;stroke-width:3;stroke-linecap:round;stroke-linejoin:round;stroke-miterlimit:10;}
</style>
<path class="st0" d="M11.6,29.3c-4.8-0.2-14-6.2-8.2-14.4c4.9-6.3,46.5-3.3,48.2-12.5C44,36,48.5,94.6,22.2,105.3
	c-10.4,1.1-5.8-12-3.3-17.4"/>
<path class="st0" d="M91.9,1.7c-37.8-3.6-21.4,45.7-48,48.9C66.3,47.7,62.6,93.7,84,75.8c12.3-10.2,31.6-33.1,34.6-66.9
	c1.1,18.5-0.7,87.6-8.4,93.7"/>
<path class="st0" d="M83.5,22.9c6.9-8.6,16.5-12,26.5-13.3c11.8-1.5,16.7,0.5,41.9-5.5"/>
</svg>
