<?xml version="1.0" encoding="utf-8"?>
<!-- Generator: Adobe Illustrator 23.0.0, SVG Export Plug-In . SVG Version: 6.00 Build 0)  -->
<svg version="1.1" id="KT" xmlns="http://www.w3.org/2000/svg" xmlns:xlink="http://www.w3.org/1999/xlink" x="0px" y="0px"
	 viewBox="0 0 135 125.9" style="enable-background:new 0 0 135 125.9;" xml:space="preserve">
<style type="text/css">
	.st0{fill:#FFFFFF;stroke:#000000;stroke-width:4;stroke-linecap:round;stroke-linejoin:round;stroke-miterlimit:10;}
	.st1{fill:none;stroke:#000000;stroke-width:4;stroke-linecap:round;stroke-miterlimit:10;}
</style>
<path id="face" class="st0" d="M133.3,54.6C51.6,52.1,46.4,1.5,46.4,1.5C21.8,6.4,1.5,31,1.5,60.4c0,35.4,29.5,64,65.9,64
	s65.9-28.7,65.9-64C133.3,54.6,133.9,57.7,133.3,54.6z"/>
<path id="mouth" class="st0" d="M48.6,85.4l30,3.1c0,0-4.8,13.6-16.7,12C50,98.8,48.6,85.4,48.6,85.4z"/>
<path id="eye-wink" class="st1" d="M99.9,63.6c-2.1-2.6-5-4.6-8.3-5.2c-3.3-0.6-7,1.4-9.4,3.7"/>
<circle id="eye_1_" cx="36.8" cy="56.2" r="8.8"/>
</svg>
