<?xml version="1.0" encoding="utf-8"?>
<!-- Generator: Adobe Illustrator 16.0.0, SVG Export Plug-In . SVG Version: 6.00 Build 0)  -->
<!DOCTYPE svg PUBLIC "-//W3C//DTD SVG 1.1//EN" "http://www.w3.org/Graphics/SVG/1.1/DTD/svg11.dtd">
<svg version="1.1" id="KT" xmlns="http://www.w3.org/2000/svg" xmlns:xlink="http://www.w3.org/1999/xlink" x="0px" y="0px"
	 width="153.4px" height="106.9px" viewBox="498.9 -290.2 153.4 106.9" enable-background="new 498.9 -290.2 153.4 106.9"
	 xml:space="preserve">
<path fill="none" stroke="#FFFFFF" stroke-width="3" stroke-linecap="round" stroke-linejoin="round" stroke-miterlimit="10" d="
	M510.5-260.9c-4.8-0.2-14-6.2-8.2-14.4c4.9-6.3,46.5-3.3,48.2-12.5c-7.6,33.6-3.1,92.2-29.4,102.9c-10.4,1.1-5.8-12-3.3-17.4"/>
<path fill="none" stroke="#FFFFFF" stroke-width="3" stroke-linecap="round" stroke-linejoin="round" stroke-miterlimit="10" d="
	M590.8-288.5c-37.8-3.6-21.4,45.7-48,48.9c22.4-2.9,18.7,43.1,40.1,25.2c12.3-10.2,31.6-33.1,34.6-66.9c1.1,18.5-0.7,87.6-8.4,93.7"
	/>
<path fill="none" stroke="#FFFFFF" stroke-width="3" stroke-linecap="round" stroke-linejoin="round" stroke-miterlimit="10" d="
	M582.4-267.3c6.9-8.6,16.5-12,26.5-13.3c11.8-1.5,16.7,0.5,41.9-5.5"/>
</svg>
