
<svg version="1.1" id="Layer_1" xmlns="http://www.w3.org/2000/svg" xmlns:xlink="http://www.w3.org/1999/xlink" x="0px" y="0px"
	  viewBox="472.9 458.9 550 800" enable-background="new 472.9 458.9 550 800" xml:space="preserve">
<path id="shadow" opacity="0.2" fill="#939394" enable-background="new    " d="M964.8,466.8l-435.5-0.3
	c-29-0.1-50.9,15.2-50.9,41.4l-0.4,700.4c0,26.2,22,50.2,51,50.3l435.5,0.3c29.2,0.1,58.1-24.2,58.1-50.3l0.3-700.2
	C1022.9,482.2,993.9,467,964.8,466.8z M984.1,1179.8H507V521.7h477.1V1179.8z"/>
<path id="body" fill="#FCFCFC" d="M959.9,459.2l-435.5-0.3c-29.2-0.1-50.9,15.2-50.9,41.4l-0.6,700.4c0,26.2,21.9,50.2,51,50.3
	l435.5,0.3c29,0.1,57.9-24.2,58.1-50.3l0.4-700.4C1018,474.4,989.1,459.3,959.9,459.2z M984.1,1179.8l-477.4-0.1l0.3-657.9
	l477.4,0.1L984.1,1179.8z"/>
<path fill="#D3D3D3" d="M766.7,1226.5c4.5-5.9,5.3-13.7,2.6-20.1c3.2,6.8,2.9,15.2-2,21.3c-6.6,8.6-18.4,10.1-26.6,3.3
	c-2.6-2.3-4.6-4.9-5.6-7.8c1.2,2.4,2.9,4.6,5.2,6.6C748.1,1236.6,760.1,1235,766.7,1226.5z"/>
<path fill="#D3D3D3" d="M752.7,1195.9c7.2,0,13.5,4.3,16.5,10.2c-2.9-6.9-9.5-11.6-17.3-11.8c-10.5-0.1-19,8.9-19,20
	c-0.1,3.5,0.7,6.8,2.3,9.6c-1.2-2.4-1.6-5.3-1.7-8.1C733.5,1204.8,742.1,1195.9,752.7,1195.9z"/>
<path fill="#F9F9F9" d="M754.8,1195.3c10.4,1.7,17.4,11.8,15.8,22.6c-1.6,10.8-11.2,18.3-21.6,16.5c-10.4-1.7-17.4-11.8-15.8-22.6
	C734.8,1201.1,744.4,1193.8,754.8,1195.3z"/>
<path fill="#B3BEC4" d="M746.3,488.5c2.7,0.4,4.5,2.9,4,5.5c-0.4,2.6-2.9,4.5-5.6,4c-2.7-0.4-4.5-2.9-4-5.5
	C741.1,489.8,743.5,488.1,746.3,488.5z"/>
</svg>
